<?xml version="1.0" encoding="UTF-8" standalone="no"?>
<svg
   xmlns:dc="http://purl.org/dc/elements/1.1/"
   xmlns:cc="http://creativecommons.org/ns#"
   xmlns:rdf="http://www.w3.org/1999/02/22-rdf-syntax-ns#"
   xmlns:svg="http://www.w3.org/2000/svg"
   xmlns="http://www.w3.org/2000/svg"
   id="svg8"
   version="1.1"
   viewBox="0 0 210 54.087003"
   height="54.087002mm"
   width="210mm">
  <defs
     id="defs2" />
  <metadata
     id="metadata5">
    <rdf:RDF>
      <cc:Work
         rdf:about="">
        <dc:format>image/svg+xml</dc:format>
        <dc:type
           rdf:resource="http://purl.org/dc/dcmitype/StillImage" />
        <dc:title></dc:title>
      </cc:Work>
    </rdf:RDF>
  </metadata>
  <g
     id="layer1">
    <g
       transform="scale(0.99790351)"
       style="font-style:normal;font-weight:normal;font-size:71.9385px;line-height:1.25;font-family:sans-serif;fill:#000000;fill-opacity:1;stroke:none;stroke-width:0.374679"
       id="text14"
       aria-label="SC-LIN">
      <path
         id="path70"
         style="font-style:normal;font-variant:normal;font-weight:normal;font-stretch:normal;font-size:71.9385px;font-family:Tahoma;-inkscape-font-specification:Tahoma;stroke-width:0.374679"
         d="m 17.176723,54.199732 q -5.690448,0 -9.6948367,-1.159166 Q 3.5126234,51.846275 1.3373792e-6,50.12509 V 41.413787 H 0.49176842 q 3.44236958,3.231613 7.79802098,5.02305 4.3556516,1.756311 8.3951666,1.756311 5.7607,0 8.711303,-2.388583 2.950602,-2.423709 2.950602,-6.357846 0,-3.126234 -1.545553,-5.093302 -1.545554,-1.967068 -4.917671,-2.915476 -2.42371,-0.702525 -4.425904,-1.159165 -2.002195,-0.456641 -5.02305,-1.229418 Q 9.7299644,28.346833 7.587265,27.257921 5.4445655,26.169008 3.7936331,24.412697 2.177827,22.691512 1.2645453,20.373181 0.38638976,18.019725 0.38638976,14.963743 q 0,-6.3578455 4.95279704,-10.6432444 Q 10.291984,-2.6479363e-5 17.984626,-2.6479363e-5 q 4.390778,0 8.289788,0.878155509363 3.934137,0.87815547 7.271128,2.49396167 V 11.697005 H 33.018649 Q 30.524687,9.4138006 26.625676,7.727742 22.726666,6.0065572 18.441267,6.0065572 q -4.847418,0 -7.833147,2.2832043 -2.9857288,2.2480785 -2.9857288,5.9363315 0,3.336991 1.756311,5.304059 1.7563108,1.967068 5.0933018,2.88035 2.212952,0.597146 5.409438,1.369923 3.196486,0.73765 5.304059,1.369922 5.409438,1.650933 7.9034,4.987924 2.493962,3.336991 2.493962,8.219535 0,3.055981 -1.264544,6.04171 -1.229418,2.985729 -3.477496,5.058176 -2.529088,2.283204 -5.725574,3.512622 -3.16136,1.229418 -7.938526,1.229418 z" />
      <path
         id="path72"
         style="font-style:normal;font-variant:normal;font-weight:normal;font-stretch:normal;font-size:71.9385px;font-family:Tahoma;-inkscape-font-specification:Tahoma;stroke-width:0.374679"
         d="m 63.086694,54.199732 c -3.418952,0 -6.568603,-0.573728 -9.448953,-1.721185 -2.856933,-1.147457 -5.327477,-2.856933 -7.411633,-5.128428 -2.084156,-2.271496 -3.699962,-5.105011 -4.847418,-8.500546 -1.147457,-3.395535 -1.721185,-7.294545 -1.721185,-11.697031 0,-4.379069 0.550311,-8.196118 1.650932,-11.451148 1.124039,-3.25503 2.751554,-6.0885451 4.882545,-8.5005453 2.084155,-2.341748 4.554699,-4.1214765 7.411632,-5.3391855 2.856933,-1.24112645 6.053419,-1.861689679363 9.589459,-1.861689679363 1.756311,0 3.395534,0.128796139363 4.91767,0.386388429363 1.545554,0.25759228 2.97402,0.585437 4.285399,0.98353415 1.124039,0.3512622 2.271496,0.7961943 3.44237,1.3347964 1.194291,0.5151845 2.365165,1.0889128 3.512622,1.7211848 L 79.350011,12.2587 c 0,0.56253 -3.92e-4,0.562344 -0.561897,0.562344 C 78.17926,12.259025 77.394775,11.579918 76.434658,10.783723 75.474541,9.9875288 74.303667,9.2030433 72.922036,8.4302664 71.587239,7.7043245 70.135355,7.1071788 68.566384,6.6388292 66.997413,6.1704796 65.182558,5.9363048 63.12182,5.9363048 c -2.224661,0 -4.332234,0.4566409 -6.32272,1.3699226 -1.990485,0.9132817 -3.735087,2.2597869 -5.233806,4.0395156 -1.475301,1.779728 -2.622758,4.016097 -3.44237,6.709108 -0.819612,2.69301 -1.229418,5.725574 -1.229418,9.097691 0,3.582875 0.433223,6.673982 1.29967,9.273322 0.866447,2.575923 2.04903,4.753748 3.547749,6.533477 1.451883,1.732893 3.161359,3.044272 5.128428,3.934137 1.967068,0.866447 4.051224,1.29967 6.252467,1.29967 2.013903,0 3.875593,-0.245884 5.585069,-0.737651 1.709476,-0.491767 3.231612,-1.11233 4.566409,-1.861689 1.287961,-0.725942 2.400292,-1.463593 3.336991,-2.212952 0.936699,-0.772777 1.67435,-1.428467 2.212952,-1.967069 0.526389,0 0.526893,-2.43e-4 0.526893,0.562215 v 7.727573 c -1.147457,0.538603 -2.23637,1.053787 -3.266739,1.545554 -1.006951,0.491767 -2.236369,0.971826 -3.688253,1.440175 -1.522136,0.491767 -2.938893,0.866447 -4.250272,1.124039 -1.287962,0.257593 -2.974021,0.386389 -5.058176,0.386389 z" />
      <path
         id="path74"
         style="font-style:normal;font-variant:normal;font-weight:normal;font-stretch:normal;font-size:71.9385px;font-family:Tahoma;-inkscape-font-specification:Tahoma;stroke-width:0.374679"
         d="M 101.90116,32.055239 H 79.35 v -6.357364 l 22.55116,-4.82e-4 z" />
      <path
         id="path76"
         style="font-style:normal;font-variant:normal;font-weight:normal;font-stretch:normal;font-size:71.9385px;font-family:Tahoma;-inkscape-font-specification:Tahoma;stroke-width:0.374679"
         d="M 140.68051,54.200631 H 117.322 c -6.95463,-5.94e-4 -6.95471,-5.33e-4 -6.95542,-6.183017 V 0 h 6.955 v 48.017723 h 23.35893 z" />
      <path
         id="path78"
         style="font-style:normal;font-variant:normal;font-weight:normal;font-stretch:normal;font-size:71.9385px;font-family:Tahoma;-inkscape-font-specification:Tahoma;stroke-width:0.374679"
         d="M 164.46095,54.200631 H 144.158 v -6.183017 h 6.67398 V 6.1819604 h -4.32884 c -2.34521,0 -2.34514,4.311e-4 -2.34514,-2.3449161 V 0 h 20.30295 v 6.1819604 h -6.67398 V 48.017614 h 6.67398 z" />
      <path
         id="path80"
         style="font-style:normal;font-variant:normal;font-weight:normal;font-stretch:normal;font-size:71.9385px;font-family:Tahoma;-inkscape-font-specification:Tahoma;stroke-width:0.374679"
         d="m 205.43068,54.200631 c -0.72409,0 -1.47968,0 -2.78752,0 L 179.53011,7.201097 v 46.999534 h -6.49835 V 0 h 5.34024 4.53023 l 21.0406,41.413824 V 0 h 6.49836 v 48.241137 c 0,5.009451 7e-5,5.959494 -5.01051,5.959494 z" />
    </g>
  </g>
</svg>
