<?xml version="1.0" encoding="UTF-8" standalone="no"?>
<svg
   xmlns:dc="http://purl.org/dc/elements/1.1/"
   xmlns:cc="http://creativecommons.org/ns#"
   xmlns:rdf="http://www.w3.org/1999/02/22-rdf-syntax-ns#"
   xmlns:svg="http://www.w3.org/2000/svg"
   xmlns="http://www.w3.org/2000/svg"
   xmlns:sodipodi="http://sodipodi.sourceforge.net/DTD/sodipodi-0.dtd"
   xmlns:inkscape="http://www.inkscape.org/namespaces/inkscape"
   inkscape:version="1.0 (4035a4f, 2020-05-01)"
   sodipodi:docname="snowflake.svg"
   width="167.00723mm"
   height="145.3105mm"
   viewBox="0 0 166.89428 145.3105"
   version="1.1"
   id="svg8">
  <sodipodi:namedview
     inkscape:current-layer="svg8"
     inkscape:window-maximized="0"
     inkscape:window-y="23"
     inkscape:window-x="0"
     inkscape:cy="224.69416"
     inkscape:cx="523.10829"
     inkscape:zoom="0.58024049"
     showgrid="false"
     id="namedview891"
     inkscape:window-height="855"
     inkscape:window-width="1440"
     inkscape:pageshadow="2"
     inkscape:pageopacity="0"
     guidetolerance="10"
     gridtolerance="10"
     objecttolerance="10"
     borderopacity="1"
     bordercolor="#666666"
     pagecolor="#ffffff"
     inkscape:document-rotation="0"
     inkscape:pagecheckerboard="false"
     fit-margin-top="0"
     fit-margin-left="0"
     fit-margin-right="0"
     fit-margin-bottom="0" />
  <defs
     id="defs2" />
  <metadata
     id="metadata5">
    <rdf:RDF>
      <cc:Work
         rdf:about="">
        <dc:format>image/svg+xml</dc:format>
        <dc:type
           rdf:resource="http://purl.org/dc/dcmitype/StillImage" />
        <dc:title></dc:title>
      </cc:Work>
    </rdf:RDF>
  </metadata>
  <path
     sodipodi:nodetypes="cccccccc"
     id="path893"
     d="m 83.441888,64.132834 14.38389,-24.913628 -9.740708,-22.315558 14.12073,15.409887 4.13091,-7.835701 -2.07928,-10.565328 6.61709,6.109369 14.19889,-19.7125979"
     style="fill:#000000;stroke:#000000;stroke-width:1.05833;stroke-linecap:butt;stroke-linejoin:miter;stroke-miterlimit:4;stroke-dasharray:none;stroke-opacity:1;fill-opacity:1" />
  <path
     sodipodi:nodetypes="cccccccc"
     style="fill:#000000;stroke:#000000;stroke-width:1.05833;stroke-linecap:butt;stroke-linejoin:miter;stroke-miterlimit:4;stroke-dasharray:none;stroke-opacity:1;fill-opacity:1"
     d="m 90.864198,68.372545 14.364172,-24.879476 24.19613,-2.722097 -20.40566,-4.523941 4.72045,-7.495319 10.18946,-3.481959 -8.59938,-2.675865 9.97215,-22.1528789"
     id="path895" />
  <path
     sodipodi:nodetypes="cccccccc"
     style="fill:#000000;stroke:#000000;stroke-width:1.05833;stroke-linecap:butt;stroke-linejoin:miter;stroke-miterlimit:4;stroke-dasharray:none;stroke-opacity:1;fill-opacity:1"
     d="m 76.051779,76.931187 -14.370287,24.890073 -24.198799,2.71883 20.40881,4.5265 -4.720061,7.49451 -10.190266,3.4805 8.600814,2.67693 -9.97049,22.15097"
     id="path927" />
  <path
     sodipodi:nodetypes="cccccccc"
     style="fill:#000000;stroke:#000000;stroke-width:1.05833;stroke-linecap:butt;stroke-linejoin:miter;stroke-miterlimit:4;stroke-dasharray:none;stroke-opacity:1;fill-opacity:1"
     d="M 83.458254,81.201709 69.085528,106.096 l 9.744773,22.31614 -14.124424,-15.41124 -4.130389,7.83492 2.080906,10.56527 -6.618669,-6.11004 -14.198039,19.71016"
     id="path933" />
  <path
     sodipodi:nodetypes="cccccccc"
     style="fill:#000000;stroke:#000000;stroke-width:1.05833;stroke-linecap:butt;stroke-linejoin:miter;stroke-miterlimit:4;stroke-dasharray:none;stroke-opacity:1;fill-opacity:1"
     d="M 76.023844,68.329191 61.689318,43.496513 37.493555,40.778274 57.899992,36.251069 53.180722,28.756491 42.991792,25.276153 51.591628,22.59891 41.622981,0.4475881"
     id="path969" />
  <path
     id="path971"
     d="M 84.408025,65.75345 69.092566,39.221435 78.836769,16.904376 64.713645,32.316467 60.583979,24.481429 62.66492,13.915789 56.04689,20.026194 41.851143,0.3158661"
     style="fill:#000000;stroke:#000000;stroke-width:1.05833;stroke-linecap:butt;stroke-linejoin:miter;stroke-miterlimit:4;stroke-dasharray:none;stroke-opacity:1;fill-opacity:1"
     sodipodi:nodetypes="cccccccc" />
  <path
     id="path977"
     d="m 82.508325,79.564393 15.313872,26.529277 -9.748358,22.31773 14.126911,-15.41353 4.12916,7.83429 -2.0826,10.56561 6.61966,-6.11111 14.19493,19.70793"
     style="fill:#000000;stroke:#000000;stroke-width:1.05833;stroke-linecap:butt;stroke-linejoin:miter;stroke-miterlimit:4;stroke-dasharray:none;stroke-opacity:1;fill-opacity:1"
     sodipodi:nodetypes="cccccccc" />
  <path
     sodipodi:nodetypes="cccccccc"
     style="fill:#000000;stroke:#000000;stroke-width:1.05833;stroke-linecap:butt;stroke-linejoin:miter;stroke-miterlimit:4;stroke-dasharray:none;stroke-opacity:1;fill-opacity:1"
     d="m 90.874005,76.953217 14.352935,24.864563 24.1983,2.71502 -20.40946,4.52972 4.71886,7.49374 10.18969,3.47889 -8.60122,2.67829 9.96697,22.14936"
     id="path979" />
  <path
     id="path985"
     d="M 77.952295,76.93012 47.317134,76.93252 32.862076,96.529848 39.147787,76.592746 30.2976,76.933875 22.187953,84.01886 24.170702,75.232252 0.00316158,72.793524"
     style="fill:#000000;stroke:#000000;stroke-width:1.05833;stroke-linecap:butt;stroke-linejoin:miter;stroke-miterlimit:4;stroke-dasharray:none;stroke-opacity:1;fill-opacity:1"
     sodipodi:nodetypes="cccccccc" />
  <path
     sodipodi:nodetypes="cccccccc"
     style="fill:#000000;stroke:#000000;stroke-width:1.05833;stroke-linecap:butt;stroke-linejoin:miter;stroke-miterlimit:4;stroke-dasharray:none;stroke-opacity:1;fill-opacity:1"
     d="m 75.977408,68.381337 -28.659619,0.0023 -14.451929,-19.594961 6.282539,19.936027 -8.850123,-0.339715 -8.108517,-7.083681 1.981353,8.786274 -24.16790332,2.442548"
     id="path987" />
  <path
     sodipodi:nodetypes="cccccccc"
     style="fill:#000000;stroke:#000000;stroke-width:1.05833;stroke-linecap:butt;stroke-linejoin:miter;stroke-miterlimit:4;stroke-dasharray:none;stroke-opacity:1;fill-opacity:1"
     d="m 90.887747,76.92994 28.706563,-0.0023 14.45043,19.598898 -6.2819,-19.940042 8.84923,0.339794 8.10765,7.085092 -1.98115,-8.788029 24.16543,-2.443046"
     id="path993" />
  <path
     id="path995"
     d="m 88.963072,68.379461 30.631928,-0.0024 14.45352,-19.601138 -6.28503,19.940976 8.84925,-0.341188 8.10879,-7.086371 -1.98255,8.788327 24.165,2.439191"
     style="fill:#000000;stroke:#000000;stroke-width:1.05833;stroke-linecap:butt;stroke-linejoin:miter;stroke-miterlimit:4;stroke-dasharray:none;stroke-opacity:1;fill-opacity:1"
     sodipodi:nodetypes="cccccccc" />
</svg>
